<svg
  class="jay0"
  {width}
  {height}
  viewBox="0 0 35 44"
  fill="none"
  xmlns="http://www.w3.org/2000/svg"
>
  <path
    d="M20.3005,16.1681C18.4896,12.5463,17.4393,10.5641,17.4393,6.54726C17.4393,4.32342,18.9684,1.07973,22.9031,2.24556C24.8554,2.82403,27.0636,3.1672,28.2024,4.98929C28.7487,5.86341,28.0997,6.51848,27.9359,7.41946C27.7951,8.1937,27.9202,9.12992,27.9202,9.91234C27.9202,11.8732,29.4122,14.5555,30.5855,16.074C31.7451,17.5746,33,19.4153,33,21.3733C33,23.9878,32.9398,26.3024,32.2788,28.852C31.2754,32.7221,29.0102,37.0058,25.9447,39.5604C17.7657,46.3763,5.41895,37.6229,2.39571,29.1028C1.27257,25.9376,2.65204,23.2958,5.12376,21.3733C7.43283,19.5774,10.7849,17.5906,13.7469,17.7045C14.5151,17.7341,15.433,19.5858,15.8008,20.119C16.9247,21.7488,18.332,23.2882,19.6263,24.7912C21.0316,26.4232,21.6306,28.0024,23.4989,26.312C24.1227,25.7476,24.0989,24.5562,23.9535,23.7565C23.4846,21.1773,21.4647,18.4965,20.3005,16.1681Z"
    stroke="white"
    stroke-width="2.7"
    stroke-linecap="round"
  />
</svg>