<svg width="32" height="44" viewBox="0 0 32 44" fill="none" xmlns="http://www.w3.org/2000/svg">
<path d="M21.5 12C20.6438 8.28962 18.3621 6.06921 20.5 3.49999C22.0217 1.67125 23.8752 1.49999 26.2543 1.5C29 1.50001 30 3.99999 30 3.99999C30 3.99999 30.4195 6.43011 30.4021 7.99999C30.3826 9.76425 30.5525 10.7491 30.4021 12.5C30.1799 15.0873 30.4021 17 29 19C25.9079 23.4107 21.6641 20.7579 18.5 25C16.1029 28.2137 21.8344 38.3108 8 42C0.500002 44 2.45286 30.5233 1.99996 22.5C1.92293 21.1353 1.98127 20.4623 1.99997 18.5C2.02445 15.9318 1.51098 11.7429 4.49999 9.99999C6.69283 8.72132 8.51712 8.09368 11 9.99999C13.8558 12.1926 13 13.5 12 16.5C10.1081 22.1758 9.21799 29.3445 12.718 20.3445C14.2649 16.3668 23 18.5 21.5 12Z" stroke="white" stroke-width="2.7" stroke-linecap="round"/>
</svg>
